<?xml version="1.0" encoding="utf-8"?>
<!-- Svg Vector Icons : http://www.onlinewebfonts.com/icon -->
<!DOCTYPE svg PUBLIC "-//W3C//DTD SVG 1.1//EN" "http://www.w3.org/Graphics/SVG/1.1/DTD/svg11.dtd">
<svg version="1.1" xmlns="http://www.w3.org/2000/svg" xmlns:xlink="http://www.w3.org/1999/xlink" x="0px" y="0px" viewBox="0 0 1000 1000" enable-background="new 0 0 1000 1000" xml:space="preserve">
<metadata> Svg Vector Icons : http://www.onlinewebfonts.com/icon </metadata>
<g><g transform="translate(0.000000,512.000000) scale(0.100000,-0.100000)"><path d="M722,4930.1c5.7-51.7,189.5-2011.3,405.7-4359.4c216.2-2348.1,398-4271.4,400-4275.2c3.8-1.9,786.5-246.9,1739.5-541.6L5001-4780l941.6,290.9c2018.9,622,2526.1,778.9,2531.8,786.5c5.7,5.7,88,899.4,555,5938.2c130.1,1421.9,243,2629.4,248.8,2684.9l11.5,99.5H5001H710.5L722,4930.1z M7693.5,3112.1c-5.7-61.2-116.8-1295.6-244.9-2742.3c-128.2-1446.7-239.2-2637.1-245-2644.7c-5.7-7.6-503.3-147.4-1102.3-310l-1090.8-294.7L3910.2-2585c-604.7,162.7-1106.1,302.4-1111.9,310c-11.5,11.5-151.2,1563.5-151.2,1664.9v42.1l539.7-3.8l541.6-5.7l36.4-421c19.1-231.6,36.4-422.9,38.3-424.8c1.9-1.9,271.8-76.5,600.9-166.5l599-162.7l583.7,160.8c321.5,88,591.3,164.6,597.1,172.2c15.3,13.4,135.9,1372.1,124.4,1393.2c-3.8,7.7-558.8,13.4-1230.5,13.4H3852.8l-7.7,44c-5.8,23-23,235.4-40.2,472.7c-17.2,237.3-34.4,459.3-40.2,493.7l-9.6,61.2h1331.9c813.3,0,1330,7.7,1330,17.2c0,11.5,21,256.4,47.8,549.2c26.8,290.9,47.8,533.9,47.8,537.7c0,1.9-924.3,5.7-2055.3,5.7H2400.3l-9.6,82.3c-5.7,44-24.9,239.2-40.2,434.4c-15.3,195.2-34.4,394.2-40.2,445.9l-11.5,89.9H5001h2704L7693.5,3112.1z"/></g></g>
</svg>