<?xml version="1.0" encoding="utf-8"?>
<!-- Svg Vector Icons : http://www.onlinewebfonts.com/icon -->
<!DOCTYPE svg PUBLIC "-//W3C//DTD SVG 1.1//EN" "http://www.w3.org/Graphics/SVG/1.1/DTD/svg11.dtd">
<svg version="1.1" xmlns="http://www.w3.org/2000/svg" xmlns:xlink="http://www.w3.org/1999/xlink" x="0px" y="0px" viewBox="0 0 1000 1000" enable-background="new 0 0 1000 1000" xml:space="preserve">
<metadata> Svg Vector Icons : http://www.onlinewebfonts.com/icon </metadata>
<g><g transform="translate(0.000000,511.000000) scale(0.100000,-0.100000)"><path d="M834.2,4977.2c2.5-148.8,568-8638.7,577.9-8646.1c5-7.5,808.6-260.4,1780.8-565.5L4966.3-4790L6772-4249.3c992.1,297.6,1808.1,545.7,1810.6,548.1c4.9,5,86.8,1188,183.5,2626.6c99.2,1438.5,230.6,3390.5,292.7,4335.5c64.5,942.5,111.6,1721.3,106.7,1728.7c-7.5,5-1885,14.9-4171.8,17.4C1310.4,5014.4,834.2,5009.4,834.2,4977.2z M7620.2,2814.4c-9.9-153.8-22.3-377-32.2-493.6l-14.9-213.3l-1019.4-14.9c-560.5-9.9-1473.3-17.4-2028.8-17.4H3512.9v-79.4c0-44.6,17.4-277.8,37.2-515.9c19.8-238.1,37.2-458.8,37.2-488.6v-57.1h1947h1947v-54.6c0-136.4-280.3-3184.6-295.2-3199.5c-7.4-9.9-508.4-138.9-1113.6-287.7l-1096.3-270.4l-1061.5,315c-711.8,210.8-1061.6,324.9-1064,349.7c-14.9,89.3-131.5,1393.9-131.5,1460.8v74.4h416.7c228.2,0,473.7-7.4,545.6-14.9l129-17.4v-382c0-372.1,2.5-382,57-404.3c29.8-14.9,317.5-104.2,637.4-198.4l580.4-173.6l600.2,198.4l600.2,200.9l14.9,302.6c7.4,166.2,19.8,466.3,24.8,669.7l12.4,364.6h-116.6c-721.8,7.4-3581.5,69.4-3588.9,79.4c-14.9,12.4-265.4,3075.5-253,3087.9c12.4,9.9,2946.5,47.1,4231.3,52.1l1026.8,5L7620.2,2814.4z"/></g></g>
</svg>