<?xml version="1.0" encoding="utf-8"?>
<!-- Svg Vector Icons : http://www.onlinewebfonts.com/icon -->
<!DOCTYPE svg PUBLIC "-//W3C//DTD SVG 1.1//EN" "http://www.w3.org/Graphics/SVG/1.1/DTD/svg11.dtd">
<svg version="1.1" xmlns="http://www.w3.org/2000/svg" xmlns:xlink="http://www.w3.org/1999/xlink" x="0px" y="0px" viewBox="0 0 1000 1000" enable-background="new 0 0 1000 1000" xml:space="preserve">
<metadata> Svg Vector Icons : http://www.onlinewebfonts.com/icon </metadata>
<g><path d="M948.6,326.6c0-22.4,0.3-41.6-0.1-60.8c-1-51.2,9.8-43.3-44.7-61.5c-1.4-0.5-2.9-0.9-4.4-1.2c-87.9-15.7-175.1-18.6-259.9,15.5c-55.5,22.3-97,60.3-118.6,116.8C494,406,514.7,484.8,571.1,537c44.8,41.5,99.4,67.1,152.5,95c39.2,20.6,79.3,39.2,113.5,68.4c43.5,37.1,50.8,89.4,31,135.7c-18.8,44.1-60,56-101.9,62.6c-38.3,6-77,3.9-115.2-4.8c-45.4-10.4-89-24.6-127.2-52.5c-2.9-2.1-8.2-4.3-10.6-3.1c-2.4,1.3-3.6,6.8-3.6,10.5c-0.3,26.6,0.4,53.2-0.4,79.8c-0.4,11.9,3.6,18.6,14.4,23.6c54.5,25.2,112.8,34,171.6,37.2c52.6,2.8,104.7-5.1,154.2-23.8c72.9-27.6,119.1-79.1,128.4-158.3c7.3-61.7-11.1-115.7-55.6-160.3c-45.8-46-102.2-75.2-159.1-104c-39.5-19.9-80.2-37.8-113.7-68c-30.4-27.4-43.7-60.6-36.5-101.4c8.2-47,41.5-68.9,82.5-83.2c32.5-11.3,66.1-10.5,99.7-9.7c48.2,1.1,93.1,14.4,135,38.4C934.9,321.7,940.1,323.2,948.6,326.6z M380.4,504.5c0-118.1,0-236.3,0-354.4c0-38.7,0-38.7,38.6-38.7c64.7,0,129.5,0.1,194.2-0.1c18-0.1,20.3-2.7,20.4-20.5c0.1-18.4,0-36.8,0-55.2c0-25.4,0-25.5-25.4-25.5c-166.7,0-333.4,0-500.1,0c-21.9,0-43.8-0.1-65.8,0c-20.8,0.1-21.9,1.2-21.9,21.3c-0.1,19.4-0.1,38.9,0,58.3c0.1,20.1,1.6,21.7,22,21.7c68.3,0.1,136.6,0,204.9,0c23.7,0,23.7,0,23.7,23.1c0,176.9,0,353.9,0,530.8c0,69,0,138.1,0,207.1c0,21.3,0.5,21.9,21,22c22.4,0.1,44.9,0.1,67.3,0c20.9-0.1,21-0.2,21-21.7C380.4,750,380.4,627.3,380.4,504.5z"/></g>
</svg>